<svg xmlns="http://www.w3.org/2000/svg" xmlns:xlink="http://www.w3.org/1999/xlink" viewBox="0 0 596.44 392.02"><defs><style>.cls-1{fill:#004165;}.cls-2{fill:#01c4ff;}.cls-3{fill:url(#linear-gradient);}.cls-4{fill:url(#linear-gradient-2);}</style><linearGradient id="linear-gradient" x1="239.57" y1="274.12" x2="239.57" y2="85.74" gradientUnits="userSpaceOnUse"><stop offset="0.31" stop-color="#01c4ff"/><stop offset="0.41" stop-color="#06c5ff"/><stop offset="0.52" stop-color="#13c8ff"/><stop offset="0.63" stop-color="#2acdff"/><stop offset="0.75" stop-color="#4ad5ff"/><stop offset="0.88" stop-color="#73deff"/><stop offset="1" stop-color="#a3e9ff"/></linearGradient><linearGradient id="linear-gradient-2" x1="432.46" y1="391.97" x2="432.46" y2="1.12" gradientUnits="userSpaceOnUse"><stop offset="0" stop-color="#01c4ff"/><stop offset="0.06" stop-color="#01bcf6"/><stop offset="0.17" stop-color="#01a6dc"/><stop offset="0.3" stop-color="#0183b3"/><stop offset="0.45" stop-color="#00537a"/><stop offset="0.5" stop-color="#004165"/></linearGradient></defs><g id="Layer_2" data-name="Layer 2"><path class="cls-1" d="M320.49,124.66,306.44,78.8l-7.18,45.86H289.19l9.47-59.22h12.66l14.36,47,14.05-47H352.5l9.37,59.22H351.7L344.52,78.8l-14.06,45.86Z" transform="translate(-64.13 -65.43)"/><path class="cls-1" d="M378.72,124.66H368.55V65.44h10.17Z" transform="translate(-64.13 -65.43)"/><path class="cls-1" d="M386,65.44h10.17v59.22H386Zm33.2,0h12.17L408.13,94.55,433,124.66H420.59l-24-29.21Z" transform="translate(-64.13 -65.43)"/><path class="cls-1" d="M472.23,115.69v9H435.44V65.44h36.19v9H445.51v16h24.23v8.77H445.51v16.55Z" transform="translate(-64.13 -65.43)"/><path class="cls-2" d="M65.37,435.1a66.33,66.33,0,0,0,11.08,6.39,31.62,31.62,0,0,0,13.09,2.56,30.13,30.13,0,0,0,6.47-.67,16.15,16.15,0,0,0,5.39-2.15,11.58,11.58,0,0,0,3.7-3.8,10.94,10.94,0,0,0,1.38-5.72,10.52,10.52,0,0,0-1.23-5.28,12.52,12.52,0,0,0-3.39-3.79,21.14,21.14,0,0,0-5.23-2.83c-2.06-.79-4.37-1.59-6.93-2.38a68.7,68.7,0,0,1-11.4-4.31,29.62,29.62,0,0,1-7.93-5.58,20.71,20.71,0,0,1-4.7-7.29,27.81,27.81,0,0,1-1.54-9.74,23.77,23.77,0,0,1,2.31-10.64,22.33,22.33,0,0,1,6.32-7.81,29,29,0,0,1,9.31-4.76,37.82,37.82,0,0,1,11.17-1.63,40.94,40.94,0,0,1,13.09,1.92,43.73,43.73,0,0,1,10.32,5v15.68a46,46,0,0,0-10.86-6.83,29.92,29.92,0,0,0-12.09-2.38q-6.61,0-10.39,3.12a10.26,10.26,0,0,0-3.78,8.33,9.39,9.39,0,0,0,4,8.18q4,2.83,12.78,5.5a67.06,67.06,0,0,1,11.47,4.39,29.47,29.47,0,0,1,8,5.73,20.26,20.26,0,0,1,4.62,7.51,30.16,30.16,0,0,1,1.46,9.89,24.41,24.41,0,0,1-2.54,11.53,22.45,22.45,0,0,1-6.93,8,31.45,31.45,0,0,1-10.24,4.68,48.25,48.25,0,0,1-12.47,1.56A47.37,47.37,0,0,1,76,455.6a37.49,37.49,0,0,1-10.62-4.92Z" transform="translate(-64.13 -65.43)"/><path class="cls-2" d="M132.51,365.82h15.71V457.3H132.51Zm51.28,0h18.79l-35.88,45L205,457.3H186l-37.12-45.12Z" transform="translate(-64.13 -65.43)"/><path class="cls-2" d="M226.14,457.3H210.43V365.82h15.71Z" transform="translate(-64.13 -65.43)"/><path class="cls-2" d="M242.77,365.82h15.71v77.62h37.27V457.3h-53Z" transform="translate(-64.13 -65.43)"/><path class="cls-2" d="M304.06,365.82h15.71v77.62H357V457.3h-53Z" transform="translate(-64.13 -65.43)"/><polygon class="cls-1" points="68.38 59.22 198.6 59.22 208.07 0 1.27 0 1.27 273.93 68.38 273.93 68.38 194.24 177.31 194.24 186.78 135.02 68.38 135.02 68.38 59.22"/><polygon class="cls-3" points="258.78 274.12 190.44 274.12 221.4 85.74 288.69 85.74 258.78 274.12"/><polygon class="cls-4" points="534.59 1.12 450.36 1.12 357.58 311.04 288.69 85.74 268.49 212.99 323.37 391.97 389.17 391.97 481.95 89.3 529.32 391.97 596.44 391.97 534.59 1.12"/></g></svg>