<?xml version="1.0" encoding="utf-8"?>
<!-- Generator: Adobe Illustrator 27.3.1, SVG Export Plug-In . SVG Version: 6.00 Build 0)  -->
<svg version="1.2" baseProfile="tiny" id="Layer_1" xmlns="http://www.w3.org/2000/svg" xmlns:xlink="http://www.w3.org/1999/xlink"
	 x="0px" y="0px" viewBox="0 0 723 93" overflow="visible" xml:space="preserve">
<g>
	<path fill="#004165" d="M50.4,92.1L21.3,6.2L5.6,92.1H0.4L17.1,0.6h7.4l28.8,84.7L81.8,0.6h7.5l16.8,91.5h-5.4L85.1,5.5l-29,86.5
		H50.4z"/>
	<path fill="#004165" d="M113.6,46.4c0-6.8,1.2-13.1,3.5-18.7c2.3-5.7,5.5-10.5,9.6-14.5c4.1-4,9-7.1,14.6-9.3
		c5.6-2.2,11.8-3.3,18.3-3.3c6.6,0,12.7,1.1,18.3,3.3c5.6,2.2,10.5,5.3,14.6,9.3c4.1,4,7.3,8.9,9.6,14.5c2.3,5.7,3.5,11.9,3.5,18.7
		c0,6.8-1.2,13.1-3.5,18.7c-2.3,5.7-5.5,10.5-9.6,14.5c-4.1,4-9,7.1-14.6,9.3c-5.6,2.2-11.8,3.3-18.3,3.3c-6.6,0-12.7-1.1-18.3-3.3
		c-5.6-2.2-10.5-5.3-14.6-9.3c-4.1-4-7.3-8.9-9.6-14.5C114.7,59.4,113.6,53.2,113.6,46.4z M200.4,46.4c0-6.3-1.1-12-3.2-17.1
		c-2.1-5.1-5-9.4-8.6-13c-3.6-3.6-8-6.3-12.9-8.2c-5-1.9-10.3-2.9-16.1-2.9c-5.8,0-11.1,1-16.1,2.9c-5,1.9-9.3,4.6-12.9,8.2
		c-3.6,3.6-6.5,7.9-8.6,13c-2.1,5.1-3.2,10.8-3.2,17.1c0,6.3,1.1,12,3.2,17.1c2.1,5.1,5,9.4,8.6,13c3.6,3.6,8,6.3,12.9,8.2
		c5,1.9,10.3,2.9,16.1,2.9c5.7,0,11.1-1,16.1-2.9c5-1.9,9.3-4.6,12.9-8.2c3.6-3.6,6.5-7.9,8.6-13C199.4,58.4,200.4,52.7,200.4,46.4z
		"/>
	<path fill="#004165" d="M221.5,1.3c3.4-0.5,6.4-0.8,8.9-0.8c2.6,0,4.7,0,6.5,0c10.2,0,18.8,1.1,26,3.2c7.2,2.2,13.1,5.2,17.6,9.1
		c4.6,3.9,7.9,8.6,10.1,14c2.2,5.4,3.2,11.4,3.2,17.8c0,6.8-1.1,13.2-3.2,18.9c-2.1,5.8-5.4,10.8-9.9,15c-4.5,4.2-10.1,7.5-17,10
		c-6.9,2.4-15.1,3.6-24.6,3.6c-3.2,0-6.2-0.1-8.9-0.3c-2.8-0.2-5.7-0.5-8.8-0.9V1.3z M226.7,86.9c2.1,0.2,4.1,0.4,6.1,0.5
		c2,0.1,4.1,0.2,6.4,0.2c7.8,0,14.8-0.9,20.9-2.7c6.1-1.8,11.3-4.5,15.5-8.1c4.2-3.6,7.4-8,9.7-13.4c2.3-5.4,3.4-11.6,3.4-18.8
		c0-6.1-1.1-11.6-3.2-16.5c-2.1-4.9-5.3-9-9.5-12.5c-4.3-3.4-9.7-6.1-16.2-7.9c-6.5-1.9-14.1-2.8-22.9-2.8c-1.7,0-3.4,0-4.9,0
		s-3.3,0.5-5.2,1.4V86.9z"/>
	<path fill="#004165" d="M359.5,87.5v4.6h-49.7V0.6H359v4.6h-44v37.6h41.4v4.6H315v40H359.5z"/>
	<path fill="#004165" d="M375.7,0.6h5.2v86.9h40.8v4.6h-46V0.6z"/>
	<path fill="#01C4FF" d="M430.9,69.9c3.6,2.5,7.3,4.7,11.1,6.4c3.8,1.7,8.2,2.6,13.1,2.6c2.3,0,4.4-0.2,6.5-0.7
		c2.1-0.4,3.9-1.2,5.4-2.2c1.5-1,2.8-2.3,3.7-3.8c0.9-1.5,1.4-3.4,1.4-5.7c0-2.1-0.4-3.8-1.2-5.3c-0.8-1.4-2-2.7-3.4-3.8
		c-1.4-1.1-3.2-2-5.2-2.8c-2.1-0.8-4.4-1.6-6.9-2.4c-4.4-1.3-8.2-2.7-11.4-4.3c-3.2-1.6-5.8-3.4-7.9-5.6c-2.1-2.1-3.7-4.6-4.7-7.3
		c-1-2.7-1.5-6-1.5-9.7c0-4,0.8-7.5,2.3-10.6s3.6-5.7,6.3-7.8c2.7-2.1,5.8-3.7,9.3-4.8c3.5-1.1,7.3-1.6,11.2-1.6
		c4.9,0,9.3,0.6,13.1,1.9c3.8,1.3,7.2,3,10.3,5v15.7c-3.6-3-7.2-5.2-10.9-6.8c-3.6-1.6-7.7-2.4-12.1-2.4c-4.4,0-7.9,1-10.4,3.1
		c-2.5,2.1-3.8,4.9-3.8,8.3c0,3.6,1.3,6.3,4,8.2c2.7,1.9,6.9,3.7,12.8,5.5c4.4,1.3,8.2,2.8,11.5,4.4c3.2,1.6,5.9,3.5,8,5.7
		c2.1,2.2,3.6,4.7,4.6,7.5c1,2.8,1.5,6.1,1.5,9.9c0,4.5-0.8,8.3-2.5,11.5c-1.7,3.2-4,5.9-6.9,8c-2.9,2.1-6.3,3.6-10.2,4.7
		c-3.9,1-8.1,1.6-12.5,1.6c-5,0-9.6-0.6-13.7-1.8c-4.1-1.2-7.6-2.9-10.6-4.9V69.9z"/>
	<path fill="#01C4FF" d="M498.1,0.6h15.7v91.5h-15.7V0.6z M549.4,0.6h18.8l-35.9,45l38.3,46.5h-19.1L514.4,47L549.4,0.6z"/>
	<path fill="#01C4FF" d="M591.7,92.1H576V0.6h15.7V92.1z"/>
	<path fill="#01C4FF" d="M608.3,0.6h15.7v77.6h37.3v13.9h-53V0.6z"/>
	<path fill="#01C4FF" d="M669.6,0.6h15.7v77.6h37.3v13.9h-53V0.6z"/>
</g>
</svg>
