<svg width="106" height="64" viewBox="0 0 106 64" fill="none" xmlns="http://www.w3.org/2000/svg">
	<path d="M13.5662 57.5574H8.56017C8.10588 57.5574 7.74958 57.202 7.74958 56.7487V44.6632H13.5662C17.1203 44.6632 20.0242 47.5602 20.0242 51.1059C20.0242 54.6515 17.1203 57.5485 13.5662 57.5485M14.8578 38.2117H0V60.7654C0 62.5338 1.45193 63.9912 3.23345 63.9912H14.8578C21.9928 63.9912 27.7738 58.2239 27.7738 51.1059C27.7738 43.9878 21.9928 38.2206 14.8578 38.2206" fill="white"/>
	<path d="M49.7386 47.8889H39.4058V38.2205H31.6562V60.7742C31.6562 62.5426 33.1082 64 34.8808 64H39.4058V56.1355C39.4058 55.238 38.6932 54.527 37.7936 54.527C37.6599 54.527 37.6599 54.3315 37.7936 54.3315H49.7386V60.7742C49.7386 62.5426 51.1905 64 52.972 64H57.4882V38.2205H49.7386V47.8889Z" fill="white"/>
	<path d="M63.3047 38.2205V60.7742C63.3047 62.5426 64.7566 64 66.5381 64H71.0632V38.2205H63.3047Z" fill="white"/>
	<mask id="mask0_1169_34924" style="mask-type:alpha" maskUnits="userSpaceOnUse" x="41" y="0" width="65" height="61">
		<path d="M42.7276 5.16879C42.6444 5.46415 43.0699 5.72259 43.7268 5.72259C45.5865 5.72259 49.6388 3.37817 58.5484 3.37817C62.7396 3.37817 67.1065 4.09811 67.1065 5.20571C67.1065 6.17486 64.0071 6.82096 64.0071 8.03008C64.0071 8.61157 64.8305 9.10076 67.1342 9.10076C75.0076 9.10076 85.4253 12.1374 85.4253 15.3033C85.4253 15.7556 85.1478 16.0232 84.7407 16.0232C83.1956 16.0232 78.107 13.2358 68.8551 13.2358C51.9426 13.2358 41.8672 24.6071 41.8672 28.5668C41.8672 29.5636 42.4871 30.1913 43.4123 30.1913C46.6689 30.1913 48.8432 26.8316 55.9486 26.8316C61.3795 26.8316 62.9154 28.9175 66.3201 28.9175C67.7726 28.9175 69.2714 28.3637 69.2714 27.09C69.2714 25.124 66.8289 23.8872 62.7766 22.955C59.3349 22.1612 57.4104 21.6166 57.4104 20.306C57.4104 17.9246 62.9431 15.9679 68.6886 15.9679C87.9419 15.9679 96.2223 29.0929 97.3973 29.0929C97.6749 29.0929 97.8137 28.8898 97.8137 28.3637C97.8137 24.5056 93.308 17.0939 88.46 13.0327C81.2434 7.00556 75.7385 5.6949 75.7385 4.90112C75.7385 4.72575 75.9791 4.66114 76.2196 4.66114C77.885 4.66114 84.8332 7.61473 90.5602 12.7189C98.4613 19.7798 102.874 30.8004 102.874 39.532C102.874 41.2765 102.68 42.301 102.033 42.301C100.756 42.301 99.1552 35.8585 93.6873 29.499C89.0891 24.1456 81.3452 18.8845 74.1565 18.8845C72.3708 18.8845 71.1958 19.1984 71.1958 20.2598C71.1958 23.2134 81.6875 25.9178 81.6875 36.4584V36.4861C81.6413 37.4368 81.632 38.1567 81.41 38.8951C80.5496 41.8303 83.1401 45.2731 84.7869 44.9592C87.396 44.4516 87.285 37.8798 87.2665 37.0491V36.9291C86.9797 33.6802 86.2302 32.5357 86.2302 30.8281C86.2302 29.6559 86.7113 29.1021 87.433 29.1021C88.5617 29.1021 91.2818 30.8558 94.3072 35.1662C97.3326 39.4766 99.5715 45.8822 99.5715 52.9062C99.5715 57.6597 99.8213 60.2349 100.95 60.2349C102.939 60.2349 106.002 52.5463 106.002 43.8516C105.983 19.5952 86.7484 0 62.3047 0C52.7012 0 43.1162 3.73814 42.7276 5.16879Z" fill="white"/>
	</mask>
	<g mask="url(#mask0_1169_34924)">
		<rect x="21.5117" y="-27.6899" width="104.547" height="103.376" fill="white"/>
	</g>
</svg>
